<svg width="429" height="72" viewBox="0 0 429 72" fill="none" xmlns="http://www.w3.org/2000/svg">
<path d="M67.216 38.992L69.904 70.192L64.528 71.536C62.864 70.704 61.168 69.584 59.44 68.176C57.712 66.704 56.304 64.944 55.216 62.896L57.328 37.744L56.368 15.856L39.568 66.832L36.016 67.984C31.92 65.616 28.752 62.224 26.512 57.808L19.12 18.256L16.528 38.992L15.664 70.192L10.096 71.536C6.768 69.872 3.984 66.992 1.744 62.896L7.216 37.744L9.904 13.264L1.84 13.552C0.944 12.016 0.432 10.256 0.304 8.272C0.24 6.224 0.432 4.4 0.88 2.8H14.8C15.76 3.248 16.912 3.952 18.256 4.912C19.664 5.872 21.072 6.896 22.48 7.984C23.952 9.072 25.2 10.096 26.224 11.056L35.728 50.896L52.336 4.048L55.12 2.128C55.824 2.256 56.848 2.608 58.192 3.184C59.6 3.76 60.976 4.4 62.32 5.10399C63.664 5.808 64.624 6.48 65.2 7.12L67.216 38.992ZM224.238 59.92L253.806 53.968L256.206 58.864C255.182 60.848 253.742 62.864 251.886 64.912C250.03 66.896 248.238 68.592 246.51 70H227.694C226.67 69.872 225.294 69.36 223.566 68.464C221.902 67.568 220.174 66.48 218.382 65.2C216.59 63.856 215.022 62.48 213.678 61.072C212.334 59.6 211.47 58.288 211.086 57.136L213.678 14.128C214.318 13.04 215.214 11.76 216.366 10.288C217.582 8.752 218.894 7.28 220.302 5.872C221.71 4.4 222.99 3.184 224.142 2.224C228.814 1.328 233.486 0.879997 238.158 0.879997C242.894 0.879997 247.598 1.584 252.27 2.992C253.166 3.824 254.062 4.91199 254.958 6.256C255.854 7.536 256.558 8.688 257.07 9.712L255.726 23.824C254.638 24.208 253.198 24.432 251.406 24.496C249.614 24.496 248.078 24.368 246.798 24.112L245.454 12.112C242.318 11.856 239.086 11.824 235.758 12.016C232.494 12.144 229.39 12.656 226.446 13.552C225.486 16.624 224.686 20.24 224.046 24.4C223.47 28.56 223.086 32.88 222.894 37.36C222.702 41.776 222.702 45.968 222.894 49.936C223.15 53.904 223.598 57.232 224.238 59.92Z" fill="#FF0000"/>
<path d="M123.206 55.984L125.606 60.784C124.71 62.704 123.462 64.624 121.862 66.544C120.262 68.4 118.598 70.064 116.87 71.536L86.4378 69.04L82.3098 71.536C79.6218 70.576 77.5418 69.136 76.0698 67.216L79.8138 37.744L78.6618 2.8L81.4458 0.879997C82.1498 1.008 83.1418 1.392 84.4218 2.032C85.7658 2.608 87.0138 3.248 88.1658 3.952L116.39 0.879997C118.182 1.968 119.75 3.216 121.094 4.62399C122.502 6.032 123.814 7.6 125.03 9.328L123.686 14.512L90.4698 13.648L89.8938 32.176L111.494 29.008C113.542 30.096 115.238 31.216 116.582 32.368C117.99 33.52 119.174 34.928 120.134 36.592L118.694 42.16L89.7018 41.2V60.016L123.206 55.984ZM169.787 1.36C171.515 2.32 173.115 3.536 174.587 5.008C176.123 6.48 177.467 7.952 178.619 9.424C179.771 10.896 180.635 12.176 181.211 13.264L179.579 59.632C179.003 60.784 178.011 62.032 176.603 63.376C175.259 64.72 173.723 66 171.995 67.216C170.267 68.368 168.603 69.328 167.003 70.096C165.403 70.928 164.091 71.408 163.067 71.536L142.235 68.656L137.435 71.536C134.747 70.576 132.667 69.136 131.195 67.216L134.939 37.744L133.787 2.8L136.571 0.879997C137.211 1.008 138.075 1.328 139.163 1.84C140.315 2.288 141.435 2.832 142.523 3.472C143.675 4.112 144.603 4.72 145.307 5.296C147.931 3.952 150.747 2.928 153.755 2.224C156.763 1.52 159.675 1.104 162.491 0.975996C165.307 0.783995 167.739 0.911995 169.787 1.36ZM144.827 60.208L166.907 57.616C167.611 54.48 168.187 50.896 168.635 46.864C169.147 42.832 169.467 38.704 169.595 34.48C169.787 30.256 169.755 26.192 169.499 22.288C169.243 18.384 168.763 15.024 168.059 12.208C165.691 11.888 163.131 11.856 160.379 12.112C157.691 12.304 155.035 12.72 152.411 13.36C149.851 13.936 147.579 14.704 145.595 15.664L144.827 38.992V60.208ZM202.7 70.192L197.132 71.536C195.468 70.704 193.772 69.584 192.044 68.176C190.316 66.704 188.908 64.944 187.82 62.896L192.524 37.744L191.372 2.8L194.156 0.879997C194.86 1.008 195.82 1.35999 197.036 1.936C198.316 2.512 199.564 3.152 200.78 3.856C201.996 4.56 202.892 5.232 203.468 5.872L202.604 38.992L202.7 70.192ZM309.942 38.32L318.87 68.272L313.974 71.536C312.182 71.216 310.262 70.512 308.214 69.424C306.166 68.336 304.31 66.96 302.646 65.296L301.206 51.184L279.126 51.088L273.366 70H267.702C266.358 68.72 265.142 67.216 264.054 65.488C262.966 63.696 262.102 61.648 261.462 59.344L272.886 37.648L281.718 13.072L271.638 13.744C270.742 12.208 270.23 10.416 270.102 8.368C270.038 6.32 270.23 4.496 270.678 2.89599H290.358C291.574 3.536 292.918 4.464 294.39 5.68C295.926 6.832 297.398 8.144 298.806 9.616C300.278 11.024 301.526 12.496 302.55 14.032L309.942 38.32ZM282.294 41.008L300.054 40.816L299.958 39.76L291.606 13.648L282.294 41.008ZM359.773 41.584L373.597 67.504L368.893 71.536C367.101 71.216 365.085 70.512 362.845 69.424C360.605 68.336 358.653 66.96 356.989 65.296L350.845 42.832L336.733 43.312V67.024L329.341 71.536C326.653 70.576 324.573 69.136 323.101 67.216L326.845 37.744L325.693 2.8L328.477 0.879997C329.373 1.008 330.653 1.488 332.317 2.32C334.045 3.152 335.485 4.016 336.637 4.912C339.261 3.632 342.013 2.672 344.893 2.032C347.837 1.392 350.653 1.008 353.341 0.879997C356.093 0.751995 358.493 0.911995 360.541 1.36C362.269 2.32 363.901 3.536 365.437 5.008C366.973 6.48 368.317 7.984 369.469 9.51999C370.685 10.992 371.581 12.272 372.157 13.36L370.909 32.56L359.773 41.584ZM359.389 12.016C357.405 11.696 355.133 11.6 352.573 11.728C350.013 11.792 347.421 12.08 344.797 12.592C342.237 13.104 339.805 13.872 337.501 14.896L336.925 34.48L359.293 29.68C359.677 26.48 359.869 23.344 359.869 20.272C359.933 17.136 359.773 14.384 359.389 12.016ZM426.3 55.984L428.7 60.784C427.804 62.704 426.556 64.624 424.956 66.544C423.356 68.4 421.692 70.064 419.964 71.536L389.532 69.04L385.404 71.536C382.716 70.576 380.636 69.136 379.164 67.216L382.908 37.744L381.756 2.8L384.54 0.879997C385.244 1.008 386.236 1.392 387.516 2.032C388.86 2.608 390.108 3.248 391.26 3.952L419.484 0.879997C421.276 1.968 422.844 3.216 424.188 4.62399C425.596 6.032 426.908 7.6 428.124 9.328L426.78 14.512L393.564 13.648L392.988 32.176L414.588 29.008C416.636 30.096 418.332 31.216 419.676 32.368C421.084 33.52 422.268 34.928 423.228 36.592L421.788 42.16L392.796 41.2V60.016L426.3 55.984Z" fill="white"/>
</svg>
